<?xml version="1.0" encoding="utf-8"?>
<!-- Generator: Adobe Illustrator 17.0.0, SVG Export Plug-In . SVG Version: 6.00 Build 0)  -->
<!DOCTYPE svg PUBLIC "-//W3C//DTD SVG 1.1//EN" "http://www.w3.org/Graphics/SVG/1.1/DTD/svg11.dtd">
<svg version="1.1" id="Layer_1" xmlns="http://www.w3.org/2000/svg" xmlns:xlink="http://www.w3.org/1999/xlink" x="0px" y="0px"
	 width="2304px" height="1357.891px" viewBox="0 0 2304 1357.891" enable-background="new 0 0 2304 1357.891" xml:space="preserve">
<g>
	<g>
		<path fill="#645F57" d="M113.571,416.014v526.645H45.591V416.014H113.571z"/>
		<path fill="#645F57" d="M553.482,925.468c-25.004,12.502-75.012,25.004-139.084,25.004c-148.46,0-260.197-93.765-260.197-266.448
			c0-164.87,111.736-276.605,275.043-276.605c65.635,0,107.048,14.064,125.02,23.441l-16.409,55.478
			c-25.786-12.502-62.51-21.878-106.267-21.878c-123.457,0-205.501,78.918-205.501,217.221c0,128.927,74.23,211.752,202.375,211.752
			c41.413,0,83.606-8.595,110.955-21.878L553.482,925.468z"/>
		<path fill="#A6CCCC" d="M582.383,859.834c30.474,18.753,75.012,34.38,121.894,34.38c69.542,0,110.173-36.724,110.173-89.857
			c0-49.227-28.129-77.356-99.234-104.704c-85.951-30.474-139.084-75.012-139.084-149.242c0-82.044,67.979-142.991,170.339-142.991
			c53.915,0,92.983,12.502,116.424,25.785l-18.753,55.478c-17.19-9.376-52.352-25.004-100.016-25.004
			c-71.886,0-99.234,42.975-99.234,78.918c0,49.227,32.036,73.449,104.704,101.578c89.077,34.381,134.396,77.356,134.396,154.712
			c0,81.263-60.166,151.586-184.404,151.586c-50.789,0-106.267-14.846-134.396-33.599L582.383,859.834z"/>
		<path fill="#A7CDCD" d="M1202.791,695.745h-204.72v189.874h228.16v57.04h-296.14V416.014h284.42v57.04h-216.44v166.432h204.72
			V695.745z"/>
		<path fill="#A7CDCD" d="M1267.636,942.659V416.014h74.23l168.776,266.448c39.069,61.728,69.542,117.206,94.546,171.121
			l1.563-0.782c-6.251-70.323-7.813-134.396-7.813-216.44V416.014h64.072v526.645h-68.761l-167.214-267.229
			c-36.725-58.603-71.887-118.769-98.453-175.809l-2.344,0.781c3.906,66.417,5.47,129.708,5.47,217.222v225.035H1267.636z"/>
		<path fill="#A7CDCD" d="M2178.709,711.373c-3.906-73.449-8.595-161.744-7.813-227.379h-2.344
			c-17.972,61.729-39.851,127.364-66.417,200.031l-92.983,255.509h-51.57l-85.169-250.82c-25.004-74.23-46.102-142.21-60.947-204.72
			h-1.562c-1.563,65.635-5.47,153.93-10.158,232.849l-14.064,225.816h-64.854l36.725-526.645h86.732l89.857,254.727
			c21.879,64.854,39.851,122.675,53.134,177.372h2.344c13.283-53.133,32.036-110.955,55.478-177.372l93.765-254.727h86.732
			l32.817,526.645h-66.416L2178.709,711.373z"/>
	</g>
	<g>
		<path fill="#A6CCCC" d="M346.76,608.213h-0.581l-32.824,17.72l-4.938-19.462l41.249-22.077h21.786v188.813H346.76V608.213z"/>
		<path fill="#A6CCCC" d="M498.676,602.404c-5.229-0.291-11.91,0-19.172,1.162c-40.086,6.681-61.292,36.02-65.649,67.101h0.872
			c9.005-11.91,24.691-21.786,45.605-21.786c33.406,0,56.935,24.11,56.935,61.001c0,34.567-23.529,66.521-62.744,66.521
			c-40.377,0-66.811-31.372-66.811-80.463c0-37.182,13.362-66.521,31.953-85.111c15.686-15.396,36.601-24.981,60.42-27.886
			c7.553-1.162,13.943-1.452,18.591-1.452V602.404z M491.414,711.334c0-27.015-15.396-43.282-38.924-43.282
			c-15.396,0-29.629,9.586-36.601,23.238c-1.743,2.905-2.905,6.681-2.905,11.329c0.581,31.082,14.814,54.029,41.539,54.029
			C476.599,756.649,491.414,738.349,491.414,711.334z"/>
	</g>
</g>
</svg>
